<svg width="160" height="120" viewBox="0 0 160 120" xmlns="http://www.w3.org/2000/svg">
  <defs>
    <filter id="f2" x="-20%" y="-20%" width="140%" height="140%">
      <feDropShadow dx="0" dy="3" stdDeviation="3" flood-color="#000" flood-opacity="0.3"/>
    </filter>
    <linearGradient id="grad2" x1="0%" y1="0%" x2="0%" y2="100%">
      <stop offset="0%" stop-color="#48C9B0" />
      <stop offset="100%" stop-color="#117864" />
    </linearGradient>
  </defs>

  <g filter="url(#f2)">
    <!-- Khối gai nền tối -->
    <path d="M20,90 L10,60 L30,50 L50,20 L80,40 L110,20 L130,50 L150,60 L140,90 L110,105 L50,105 Z" 
          fill="#0E6251" stroke="#0B5345" stroke-width="2" stroke-linejoin="round"/>
    
    <!-- Khối gai chính -->
    <path d="M30,85 L25,60 L45,50 L65,30 L85,50 L115,30 L135,60 L125,85 L100,95 L60,95 Z" 
          fill="url(#grad2)"/>
    
    <!-- Chi tiết gân lá sắc sảo -->
    <path d="M45,75 L40,60 L55,55 L70,40 L85,55 L105,40 L115,60 L110,75 L90,85 L65,85 Z" 
          fill="#A3E4D7" opacity="0.6"/>
  </g>
</svg>